<?xml version="1.0" encoding="UTF-8"?>
<svg version="1.1" xmlns="http://www.w3.org/2000/svg" width="32" height="32">
<path d="M0 0 C0.99 0 1.98 0 3 0 C3.59865471 5.98654709 3.59865471 5.98654709 1.95703125 8.765625 C-0.40070601 11.61426943 -2.21109682 13.74955355 -5.953125 14.2734375 C-10.05189856 14.45467579 -13.11856575 14.44074623 -16.5 11.9375 C-19.40909257 8.51931623 -19.82642417 6.42618358 -20 2 C-18 3 -16 4 -14 5 C-10.9417836 5.42057986 -8.05088031 5.49702383 -5 5 C-2.12359384 2.62499209 -2.12359384 2.62499209 0 0 Z " fill="#F20156" transform="translate(20,18)"/>
<path d="M0 0 C5.98654709 -0.59865471 5.98654709 -0.59865471 8.765625 1.04296875 C11.61426943 3.40070601 13.74955355 5.21109682 14.2734375 8.953125 C14.45467579 13.05189856 14.44074623 16.11856575 11.9375 19.5 C8.51931623 22.40909257 6.42618358 22.82642417 2 23 C3.5 20 3.5 20 5 17 C5.42057986 13.9417836 5.49702383 11.05088031 5 8 C2.62499209 5.12359384 2.62499209 5.12359384 0 3 C0 2.01 0 1.02 0 0 Z " fill="#8152DE" transform="translate(18,9)"/>
<path d="M0 0 C2.87274328 1.32359866 3.85418097 2.47866264 6 5 C6.875 8.8125 6.875 8.8125 7 12 C5 11 3 10 1 9 C-2.0582164 8.57942014 -4.94911969 8.50297617 -8 9 C-10.87640616 11.37500791 -10.87640616 11.37500791 -13 14 C-13.99 14 -14.98 14 -16 14 C-16.59865471 8.01345291 -16.59865471 8.01345291 -14.95703125 5.234375 C-10.49650325 -0.15488464 -6.76426614 -0.98740127 0 0 Z " fill="#FEA20F" transform="translate(25,0)"/>
<path d="M0 0 C-1 2 -2 4 -3 6 C-3.42057986 9.0582164 -3.49702383 11.94911969 -3 15 C-0.62499209 17.87640616 -0.62499209 17.87640616 2 20 C2 20.99 2 21.98 2 23 C-3.98654709 23.59865471 -3.98654709 23.59865471 -6.765625 21.95703125 C-9.61426943 19.59929399 -11.74955355 17.78890318 -12.2734375 14.046875 C-12.46329043 9.75327801 -12.4342668 6.90417036 -9.625 3.5 C-6.13776686 0.17882558 -4.69044821 -0.12343285 0 0 Z " fill="#149DF1" transform="translate(12,0)"/>
</svg>
